<svg xmlns="http://www.w3.org/2000/svg" viewBox="0 0 549.94 85.75"><defs><style>.cls-1{fill:#fff;}</style></defs><title>logo-horizontal-white</title><g id="Capa_2" data-name="Capa 2"><g id="Capa_1-2" data-name="Capa 1"><path class="cls-1" d="M148.56,29.51h5.59c2.55,0,3.31.17,3.31,2.63V59.36h-22c-3.05,0-5-1-5-5V4.92c0-4,1.1-4.92,5-4.92h21.79l.17,8.73H141.94c-2.71,0-2.71,1.36-2.71,4.08V48c0,1.69,1,2.46,2.71,2.46h6.62Z"/><path class="cls-1" d="M189.18,0c3.56,0,4.92,1.61,4.92,4.92V24.59c0,2.63-.43,5.94-4.75,5.94,1.61.17,5,1.36,5,6.36V59.36h-9.07l-.17-20.69c0-2-.85-3.22-3.39-3.65a34.17,34.17,0,0,0-6.7-.25V59.36h-9.08V0ZM175,23.74c0,3,1.86,2.72,4.58,2.72h3.05c1.69,0,2.37-.85,2.37-2.72V10.6c0-1.87-.34-2.37-2.37-2.37H175Z"/><path class="cls-1" d="M230.57,54.44c0,3-1.53,4.92-4.24,4.92H202.41V0h9.24V50.37h7.13c2.29,0,2.63-.17,2.63-3V0h9.16Z"/><path class="cls-1" d="M262.37,0c3.9,0,4.91.76,4.91,4.75V30.36c0,3.14-.93,4.24-4.15,4.24H247.61V59.36h-9V0ZM247.61,23.57c0,3.06,1.95,2.8,4.92,2.8h3.31c1.69,0,2.46-1.27,2.46-2.8V11.19a2.62,2.62,0,0,0-2.46-2.88h-8.23Z"/><path class="cls-1" d="M275.34,0h25.87c2.8,0,3.73,2.54,3.73,5.09V59.36H279.67c-2.46,0-4.33-2-4.33-4.92Zm9,9.07V47.49c0,1.7-.08,2.8,2.46,2.8H296V12c0-1.53-.42-2.89-2.38-2.89Z"/><path class="cls-1" d="M359.55,59.36H337.42c-3.82,0-4.92-1.44-4.92-4.92V5c0-3.64,1.69-5,4.92-5h22.13V8.73H343.61c-1.78,0-2.46.6-2.46,2.21v14h14.07v8.74H341.15v14.5c0,2.12.85,2.46,2.71,2.46h15.69Z"/><path class="cls-1" d="M391.27,0c3.56,0,4.92,1.61,4.92,4.92V24.59c0,2.63-.43,5.94-4.75,5.94,1.61.17,5,1.36,5,6.36V59.36h-9.07l-.17-20.69c0-2-.85-3.22-3.39-3.65a34.13,34.13,0,0,0-6.7-.25V59.36H368V0ZM377.11,23.74c0,3,1.86,2.72,4.58,2.72h3.05c1.7,0,2.38-.85,2.38-2.72V10.6c0-1.87-.34-2.37-2.38-2.37h-7.63Z"/><path class="cls-1" d="M432,59.36V20.1L422.65,47,413.32,20.1V59.36H404.5V0H411c1.6,0,2.88.42,4.06,3.05l7.55,21,7.89-20.95c1-2.29,2.12-3,4.41-3h5.94V59.36Z"/><path class="cls-1" d="M448.85,0h25.87c2.8,0,3.73,2.54,3.73,5.09V59.36H453.18c-2.46,0-4.33-2-4.33-4.92Zm9,9.07V47.49c0,1.7-.08,2.8,2.46,2.8h9.16V12c0-1.53-.42-2.89-2.37-2.89Z"/><path class="cls-1" d="M508.13,34.34h-12v25h-8.74V4.58c0-3.22.94-4.58,3.82-4.58h23.66V8.73h-16.2c-1.78,0-2.54.85-2.54,2.55V25.61h12Z"/><path class="cls-1" d="M549.94,59.36H527.8c-3.81,0-4.91-1.44-4.91-4.92V5c0-3.64,1.69-5,4.91-5h22.14V8.73H534c-1.78,0-2.46.6-2.46,2.21v14h14.07v8.74H531.54v14.5c0,2.12.84,2.46,2.71,2.46h15.69Z"/><path class="cls-1" d="M134.87,72.37h-3.34V70.69h8.36v1.68h-3.34V85.75h-1.68Z"/><path class="cls-1" d="M159.36,70.69v1.68h-6.69v5h5.85v1.68h-5.85v5h6.69v1.68H151V70.69Z"/><path class="cls-1" d="M174.65,70.69c2.78,0,4.18,1.4,4.18,4.18h-1.67a2.51,2.51,0,0,0-5,0v6.7a2.51,2.51,0,0,0,5,0h1.67c0,2.78-1.4,4.18-4.18,4.18s-4.19-1.4-4.19-4.18v-6.7C170.46,72.09,171.86,70.69,174.65,70.69Z"/><path class="cls-1" d="M191.6,74.87V85.75h-1.67V70.69h1.67l5,10.88V70.69h1.67V85.75h-1.67Z"/><path class="cls-1" d="M209.4,74.87c0-2.78,1.39-4.18,4.18-4.18s4.18,1.4,4.18,4.18v6.7c0,2.78-1.39,4.18-4.18,4.18s-4.18-1.4-4.18-4.18Zm4.18-2.5a2.21,2.21,0,0,0-2.51,2.5v6.7a2.51,2.51,0,0,0,5,0v-6.7A2.21,2.21,0,0,0,213.58,72.37Z"/><path class="cls-1" d="M228.87,85.75V70.69h1.67V84.07h6.69v1.68Z"/><path class="cls-1" d="M248.34,74.87c0-2.78,1.39-4.18,4.18-4.18s4.18,1.4,4.18,4.18v6.7c0,2.78-1.39,4.18-4.18,4.18s-4.18-1.4-4.18-4.18Zm4.18-2.5a2.21,2.21,0,0,0-2.51,2.5v6.7a2.51,2.51,0,0,0,5,0v-6.7A2.21,2.21,0,0,0,252.52,72.37Z"/><path class="cls-1" d="M272,70.69c2.79,0,4.18,1.4,4.18,4.18H274.5a2.51,2.51,0,0,0-5,0v6.7a2.51,2.51,0,0,0,5,0V79.06H272V77.38h4.18v4.19c0,2.78-1.39,4.18-4.18,4.18s-4.18-1.4-4.18-4.18v-6.7C267.81,72.09,269.2,70.69,272,70.69Z"/><path class="cls-1" d="M292.29,65.51h1.84l-1.84,2.84-1.67,0Zm-1.67,20.24V70.69h1.67V85.75Z"/><path class="cls-1" d="M309,80.73l-1.4,5H305.9l4.19-15.06h1.67l4.18,15.06h-1.67l-1.41-5Zm1.94-7-1.47,5.36h2.94Z"/><path class="cls-1" d="M354.31,70.69v1.68h-6.69v5h5.85v1.68h-5.85v5h6.69v1.68H346V70.69Z"/><path class="cls-1" d="M367.09,74.87V85.75h-1.68V70.69h1.68l5,10.88V70.69h1.68V85.75H372.1Z"/><path class="cls-1" d="M406.86,80.73l-1.41,5h-1.67L408,70.69h1.67l4.19,15.06h-1.68l-1.4-5Zm1.94-7-1.47,5.36h2.94Z"/><path class="cls-1" d="M424.08,85.75V70.69h1.68V84.07h6.69v1.68Z"/><path class="cls-1" d="M443.55,70.69h1.68V81.57a2.51,2.51,0,0,0,5,0V70.69h1.68V81.57c0,2.78-1.4,4.18-4.18,4.18s-4.19-1.4-4.19-4.18Z"/><path class="cls-1" d="M464.69,74.87V85.75H463V70.69h1.67l2.51,5,2.51-5h1.68V85.75h-1.68V74.87l-1.47,2.91-1,2.11-1-2.11Z"/><path class="cls-1" d="M485.23,85.75V70.69h1.67V85.75Z"/><path class="cls-1" d="M503,74.87V85.75h-1.68V70.69H503l5,10.88V70.69h1.67V85.75h-1.67Z"/><path class="cls-1" d="M524.17,85.75V70.69h1.67V85.75Z"/><path class="cls-1" d="M540.29,74.87c0-2.78,1.4-4.18,4.18-4.18s4.19,1.4,4.19,4.18v6.7c0,2.78-1.4,4.18-4.19,4.18s-4.18-1.4-4.18-4.18Zm4.18-2.5a2.21,2.21,0,0,0-2.51,2.5v6.7a2.51,2.51,0,0,0,5,0v-6.7A2.21,2.21,0,0,0,544.47,72.37Z"/><path class="cls-1" d="M48.08,48.64l19.07-.09a26.8,26.8,0,1,1-5.93-22.48L73,18.33a40.83,40.83,0,1,0,7.75,33.72l39.32.28V35.07H66"/><path class="cls-1" d="M62.8,1.2s13.8,10,16.33,16.85h41V1.2Z"/><path class="cls-1" d="M81.45,68.89s-12.9,14-18.65,16.33h57.28V68.89Z"/></g></g></svg>