<?xml version="1.0" encoding="UTF-8" standalone="no"?><!DOCTYPE svg PUBLIC "-//W3C//DTD SVG 1.1//EN" "http://www.w3.org/Graphics/SVG/1.1/DTD/svg11.dtd"><svg width="100%" height="100%" viewBox="0 0 2500 998" version="1.1" xmlns="http://www.w3.org/2000/svg" xmlns:xlink="http://www.w3.org/1999/xlink" xml:space="preserve" xmlns:serif="http://www.serif.com/" style="fill-rule:evenodd;clip-rule:evenodd;stroke-linejoin:round;stroke-miterlimit:2;"><rect id="Página-3" serif:id="Página 3" x="0" y="0" width="2500" height="997.175" style="fill:none;"/><g id="Capa-1" serif:id="Capa 1"><path d="M1160.98,308.012l79.467,-0.388c-9.896,51.542 -55.229,90.488 -109.658,90.488c-61.671,-0 -111.667,-49.996 -111.667,-111.667c-0,-61.675 49.996,-111.667 111.667,-111.667c34.012,0 64.47,15.209 84.954,39.192l49.133,-32.258c-31.142,-39.809 -79.625,-65.404 -134.087,-65.404c-93.963,-0 -170.138,76.17 -170.138,170.137c0,93.963 76.175,170.133 170.138,170.133c81.695,0 149.945,-57.579 166.37,-134.375l163.834,1.146l-0,-71.887l-225.25,-0" style="fill:#fff;fill-rule:nonzero;"/><path d="M1222.33,110.343c-0,0 57.512,41.43 68.054,70.188l170.617,-0l-0,-70.188l-238.671,0Z" style="fill:#fff;fill-rule:nonzero;"/><path d="M1300.05,392.362c-0,0 -53.759,58.467 -77.721,68.054l238.671,0l-0,-68.054l-160.95,0Z" style="fill:#fff;fill-rule:nonzero;"/><path d="M484.652,663.66l21.404,-0c9.737,-0 12.654,0.645 12.654,10.058l0,104.129l-84.021,0c-11.679,0 -19.133,-3.887 -19.133,-19.137l-0,-189.13c-0,-15.241 4.212,-18.816 19.133,-18.816l83.375,-0l0.646,33.416l-59.363,0c-10.379,0 -10.379,5.192 -10.379,15.571l0,134.625c0,6.488 3.888,9.409 10.379,9.409l25.305,-0l-0,-80.125Z" style="fill:#fff;fill-rule:nonzero;"/><path d="M585.862,641.597c0,11.358 7.138,10.379 17.521,10.379l11.679,0c6.483,0 9.083,-3.237 9.083,-10.379l0,-50.283c0,-7.134 -1.3,-9.084 -9.083,-9.084l-29.2,0l0,59.367Zm54.175,-90.833c13.625,-0 18.821,6.166 18.821,18.816l-0,75.263c-0,10.054 -1.629,22.708 -18.175,22.708c6.167,0.65 19.146,5.192 19.146,24.329l-0,85.967l-34.713,0l-0.654,-79.154c0,-7.783 -3.242,-12.325 -12.971,-13.954c-7.466,-1.617 -16.221,-0.967 -25.629,-0.967l0,94.075l-34.712,0l-0,-227.083l88.887,-0Z" style="fill:#fff;fill-rule:nonzero;"/><path d="M798.362,759.037c0,11.354 -5.842,18.813 -16.221,18.813l-91.487,-0l-0,-227.084l35.358,0l0,192.7l27.254,0c8.754,0 10.054,-0.654 10.054,-11.362l0,-181.338l35.042,0l0,208.271Z" style="fill:#fff;fill-rule:nonzero;"/><path d="M863.562,640.946c0,11.684 7.467,10.709 18.821,10.709l12.65,-0c6.483,-0 9.408,-4.867 9.408,-10.709l0,-47.354c0,-5.196 -2.925,-11.033 -9.408,-11.033l-31.471,-0l0,58.387Zm56.446,-90.183c14.921,-0 18.817,2.925 18.817,18.167l-0,97.97c-0,12.005 -3.567,16.221 -15.892,16.221l-59.371,0l0,94.725l-34.383,0l-0,-227.083l90.829,-0Z" style="fill:#fff;fill-rule:nonzero;"/><path d="M1004.04,585.478l0,146.958c0,6.487 -0.329,10.7 9.409,10.7l35.037,-0l0,-146.633c0,-5.834 -1.625,-11.025 -9.091,-11.025l-35.355,-0Zm-34.383,-34.713l98.938,0c10.708,0 14.279,9.733 14.279,19.467l-0,207.616l-96.671,0c-9.408,0 -16.546,-7.458 -16.546,-18.812l0,-208.271Z" style="fill:#fff;fill-rule:nonzero;"/><path d="M1291.78,777.848l-84.675,-0c-14.592,-0 -18.804,-5.513 -18.804,-18.813l-0,-189.125c-0,-13.954 6.483,-19.145 18.804,-19.145l84.675,-0l-0,33.416l-60.988,0c-6.808,0 -9.408,2.267 -9.408,8.434l-0,53.525l53.85,-0l-0,33.412l-53.85,0l-0,55.475c-0,8.108 3.242,9.408 10.383,9.408l60.013,0l-0,33.413Z" style="fill:#fff;fill-rule:nonzero;"/><path d="M1358.94,641.597c-0,11.358 7.137,10.379 17.521,10.379l11.679,0c6.483,0 9.083,-3.237 9.083,-10.379l0,-50.283c0,-7.134 -1.3,-9.084 -9.083,-9.084l-29.2,0l-0,59.367Zm54.175,-90.833c13.621,-0 18.821,6.166 18.821,18.816l-0,75.263c-0,10.054 -1.63,22.708 -18.175,22.708c6.166,0.65 19.145,5.192 19.145,24.329l0,85.967l-34.712,0l-0.654,-79.154c-0,-7.783 -3.242,-12.325 -12.971,-13.954c-7.467,-1.617 -16.221,-0.967 -25.629,-0.967l-0,94.075l-34.713,0l0,-227.083l88.888,-0Z" style="fill:#fff;fill-rule:nonzero;"/><path d="M1568.83,777.848l0,-150.2l-35.683,102.837l-35.683,-102.837l-0,150.2l-33.742,-0l0,-227.083l24.658,-0c6.159,-0 11.025,1.625 15.567,11.683l28.871,80.125l30.175,-80.125c3.896,-8.763 8.108,-11.683 16.862,-11.683l22.717,-0l0,227.083l-33.742,-0Z" style="fill:#fff;fill-rule:nonzero;"/><path d="M1667.79,585.478l-0,146.958c-0,6.487 -0.329,10.7 9.408,10.7l35.042,-0l-0,-146.633c-0,-5.834 -1.629,-11.025 -9.092,-11.025l-35.358,-0Zm-34.383,-34.713l98.941,0c10.704,0 14.275,9.733 14.275,19.467l0,207.616l-96.671,0c-9.408,0 -16.545,-7.458 -16.545,-18.812l-0,-208.271Z" style="fill:#fff;fill-rule:nonzero;"/><path d="M1860.16,682.149l-46.066,0l-0,95.7l-33.413,0l0,-209.566c0,-12.325 3.571,-17.517 14.596,-17.517l90.512,-0l0,33.412l-61.958,0c-6.812,0 -9.737,3.246 -9.737,9.734l-0,54.825l46.066,-0l0,33.412Z" style="fill:#fff;fill-rule:nonzero;"/><path d="M2020.1,777.848l-84.675,-0c-14.596,-0 -18.808,-5.513 -18.808,-18.813l-0,-189.125c-0,-13.954 6.483,-19.145 18.808,-19.145l84.675,-0l0,33.416l-60.987,0c-6.809,0 -9.409,2.267 -9.409,8.434l0,53.525l53.846,-0l0,33.412l-53.846,0l0,55.475c0,8.108 3.242,9.408 10.379,9.408l60.017,0l0,33.413Z" style="fill:#fff;fill-rule:nonzero;"/><path d="M432.298,827.592l-12.796,-0l0,-6.4l31.992,-0l-0,6.4l-12.796,-0l-0,51.191l-6.4,0l-0,-51.191Z" style="fill:#fff;fill-rule:nonzero;"/><path d="M525.97,821.191l0,6.4l-25.595,0l-0,19.2l22.395,0l0,6.396l-22.395,0l-0,19.196l25.595,-0l0,6.4l-31.995,-0l-0,-57.592l31.995,0Z" style="fill:#fff;fill-rule:nonzero;"/><path d="M584.448,821.191c10.667,0 15.996,5.334 15.996,16l-6.396,0c0,-6.4 -3.2,-9.6 -9.6,-9.6c-6.4,0 -9.6,3.2 -9.6,9.6l0,25.592c0,6.404 3.2,9.6 9.6,9.6c6.4,-0 9.6,-3.196 9.6,-9.6l6.396,-0c0,10.667 -5.329,16 -15.996,16c-10.666,-0 -15.995,-5.333 -15.995,-16l-0,-25.592c-0,-10.666 5.329,-16 15.995,-16" style="fill:#fff;fill-rule:nonzero;"/><path d="M649.316,837.19l0,41.592l-6.4,0l0,-57.592l6.4,0l19.196,41.596l0,-41.596l6.4,0l0,57.592l-6.4,0l-19.196,-41.592Z" style="fill:#fff;fill-rule:nonzero;"/><path d="M733.39,827.592c-6.4,-0 -9.6,3.2 -9.6,9.6l0,25.591c0,6.4 3.2,9.6 9.6,9.6c6.4,0 9.596,-3.2 9.596,-9.6l0,-25.591c0,-6.4 -3.196,-9.6 -9.596,-9.6m-15.995,9.6c-0,-10.667 5.329,-16 15.995,-16c10.667,-0 15.996,5.333 15.996,16l0,25.591c0,10.667 -5.329,16 -15.996,16c-10.666,0 -15.995,-5.333 -15.995,-16l-0,-25.591Z" style="fill:#fff;fill-rule:nonzero;"/><path d="M791.868,878.784l-0,-57.592l6.4,0l-0,51.192l25.596,-0l-0,6.4l-31.996,-0Z" style="fill:#fff;fill-rule:nonzero;"/><path d="M882.34,827.592c-6.4,-0 -9.6,3.2 -9.6,9.6l0,25.591c0,6.4 3.2,9.6 9.6,9.6c6.4,0 9.596,-3.2 9.596,-9.6l0,-25.591c0,-6.4 -3.196,-9.6 -9.596,-9.6m-15.995,9.6c-0,-10.667 5.329,-16 15.995,-16c10.667,-0 15.996,5.333 15.996,16l0,25.591c0,10.667 -5.329,16 -15.996,16c-10.666,0 -15.995,-5.333 -15.995,-16l-0,-25.591Z" style="fill:#fff;fill-rule:nonzero;"/><path d="M956.815,821.191c10.667,0 15.996,5.334 15.996,16l-6.4,0c0,-6.4 -3.196,-9.6 -9.596,-9.6c-6.4,0 -9.6,3.2 -9.6,9.6l0,25.592c0,6.404 3.2,9.6 9.6,9.6c6.4,-0 9.596,-3.196 9.596,-9.6l0,-9.596l-9.596,0l0,-6.396l15.996,0l0,15.992c0,10.667 -5.329,16 -15.996,16c-10.666,-0 -15.995,-5.333 -15.995,-16l-0,-25.592c-0,-10.666 5.329,-16 15.995,-16" style="fill:#fff;fill-rule:nonzero;"/><path d="M1028.08,821.192l6.4,-0l0,57.591l-6.4,0l0,-57.591Zm6.396,-19.821l7.042,-0l-7.042,10.875l-6.396,-0.125l6.396,-10.75Z" style="fill:#fff;fill-rule:nonzero;"/><path d="M1105.76,832.71l-5.634,20.475l11.263,0l-5.629,-20.475Zm-7.425,26.875l-5.375,19.2l-6.396,0l15.996,-57.595l6.4,-0l15.995,57.595l-6.4,0l-5.375,-19.2l-14.845,0Z" style="fill:#fff;fill-rule:nonzero;"/><path d="M1271.73,821.191l0,6.4l-25.595,0l-0,19.2l22.395,0l0,6.396l-22.395,0l-0,19.196l25.595,-0l0,6.4l-31.995,-0l-0.001,-57.592l31.996,0Z" style="fill:#fff;fill-rule:nonzero;"/><path d="M1320.61,837.19l-0,41.592l-6.4,0l-0,-57.592l6.4,0l19.195,41.596l0,-41.596l6.4,0l0,57.592l-6.4,0l-19.195,-41.592Z" style="fill:#fff;fill-rule:nonzero;"/><path d="M1480.17,832.71l-5.634,20.475l11.267,0l-5.633,-20.475Zm-7.425,26.875l-5.375,19.2l-6.396,0l15.996,-57.595l6.4,-0l15.996,57.595l-6.4,0l-5.375,-19.2l-14.846,0Z" style="fill:#fff;fill-rule:nonzero;"/><path d="M1538.65,878.784l-0,-57.592l6.4,0l-0,51.192l25.595,-0l0,6.4l-31.995,-0Z" style="fill:#fff;fill-rule:nonzero;"/><path d="M1613.12,821.191l6.4,0l-0,41.592c-0,6.404 3.2,9.6 9.595,9.6c6.4,-0 9.6,-3.196 9.6,-9.6l0,-41.592l6.4,0l0,41.592c0,10.667 -5.333,16 -16,16c-10.662,-0 -15.995,-5.333 -15.995,-16l-0,-41.592Z" style="fill:#fff;fill-rule:nonzero;"/><path d="M1694,837.19l0,41.592l-6.4,0l0,-57.592l6.4,0l9.6,19.2l9.596,-19.2l6.4,0l0,57.592l-6.4,0l0,-41.592l-5.629,11.134l-3.967,8.062l-3.966,-8.062l-5.634,-11.134Z" style="fill:#fff;fill-rule:nonzero;"/><rect x="1772.56" y="821.192" width="6.4" height="57.592" style="fill:#fff;"/><path d="M1840.64,837.19l0,41.592l-6.4,0l0,-57.592l6.4,0l19.196,41.596l-0,-41.596l6.4,0l-0,57.592l-6.4,0l-19.196,-41.592Z" style="fill:#fff;fill-rule:nonzero;"/><rect x="1921.51" y="821.192" width="6.4" height="57.592" style="fill:#fff;"/><path d="M1999.19,827.592c-6.4,-0 -9.6,3.2 -9.6,9.6l0,25.591c0,6.4 3.2,9.6 9.6,9.6c6.4,0 9.596,-3.2 9.596,-9.6l0,-25.591c0,-6.4 -3.196,-9.6 -9.596,-9.6m-15.996,9.6c0,-10.667 5.33,-16 15.996,-16c10.667,-0 15.996,5.333 15.996,16l0,25.591c0,10.667 -5.329,16 -15.996,16c-10.666,0 -15.996,-5.333 -15.996,-16l0,-25.591Z" style="fill:#fff;fill-rule:nonzero;"/><path d="M2065.18,575.228l3.229,-0c3.771,-0 6.821,-1.259 6.821,-4.309c-0,-2.692 -1.975,-4.483 -6.284,-4.483c-1.791,-0 -3.05,0.179 -3.766,0.358l-0,8.433Zm-0.18,16.688l-6.82,0l-0,-29.433c2.691,-0.538 6.462,-0.892 11.308,-0.892c5.562,0 8.075,0.892 10.225,2.15c1.617,1.258 2.871,3.588 2.871,6.463c-0,3.229 -2.513,5.741 -6.1,6.82l-0,0.359c2.871,1.071 4.487,3.225 5.383,7.175c0.896,4.483 1.438,6.279 2.15,7.358l-7.354,0c-0.896,-1.079 -1.433,-3.767 -2.333,-7.179c-0.538,-3.229 -2.33,-4.667 -6.1,-4.667l-3.23,0l0,11.846Zm-18.125,-15.433c0,13.096 9.692,23.504 22.971,23.504c12.917,-0 22.425,-10.408 22.425,-23.325c0,-13.1 -9.508,-23.688 -22.604,-23.688c-13.1,0 -22.792,10.588 -22.792,23.509m52.938,-0c-0,16.687 -13.1,29.787 -30.146,29.787c-16.871,0 -30.329,-13.1 -30.329,-29.787c-0,-16.329 13.458,-29.429 30.329,-29.429c17.046,-0 30.146,13.1 30.146,29.429" style="fill:#fff;fill-rule:nonzero;"/></g></svg>